<svg width="36" height="37" viewBox="0 0 36 37" fill="none" xmlns="http://www.w3.org/2000/svg">
<g filter="url(#filter0_d_9_3214)">
<path fill-rule="evenodd" clip-rule="evenodd" d="M32 17C32 20.2381 29.8796 22.9627 27 23.7623V21.6467C28.7314 20.9218 30 19.1518 30 17C30 14.1696 27.8053 12 25.2493 12C24.5272 12 23.8339 12.1732 23.2108 12.4855C23.1791 11.9037 23.0937 11.3367 22.9599 10.7899L22.9569 10.7911C22.0091 6.85004 18.5839 4 14.6083 4C9.92179 4 6 7.96046 6 13C6 16.2291 7.61019 19.0152 10 20.6003V22.9107C6.44938 21.1323 4 17.3628 4 13C4 6.92487 8.74949 2 14.6083 2C19.469 2 23.5661 5.38976 24.821 10.0139C24.9626 10.0047 25.1054 10 25.2493 10C28.9776 10 32 13.134 32 17ZM12.001 22.4091C12.0009 21.9308 12.1533 21.4108 12.3609 20.9244C12.8044 19.8856 13.5 19 13.5 19C13.5 19 14.1643 19.9175 14.609 20.9252C14.8327 21.4321 15.0009 21.9619 15.001 22.4091C15.0013 23.2877 14.33 24 13.5015 24C12.6731 24 12.0013 23.2877 12.001 22.4091ZM17.3609 20.9244C17.1533 21.4108 17.0009 21.9308 17.001 22.4091C17.0013 23.2877 17.6731 24 18.5015 24C19.33 24 20.0013 23.2877 20.001 22.4091C20.0009 21.9619 19.8327 21.4321 19.609 20.9252C19.1643 19.9175 18.5 19 18.5 19C18.5 19 17.8044 19.8856 17.3609 20.9244ZM14.8756 27.4091C14.8754 26.9308 15.0278 26.4108 15.2354 25.9244C15.6789 24.8856 16.3745 24 16.3745 24C16.3745 24 17.0388 24.9175 17.4835 25.9252C17.7072 26.4321 17.8754 26.9619 17.8756 27.4091C17.8758 28.2877 17.2045 29 16.376 29C15.5476 29 14.8758 28.2877 14.8756 27.4091ZM22.3609 20.9244C22.1533 21.4108 22.0009 21.9308 22.001 22.4091C22.0013 23.2877 22.6731 24 23.5015 24C24.33 24 25.0013 23.2877 25.001 22.4091C25.0009 21.9619 24.8327 21.4321 24.609 20.9252C24.1643 19.9175 23.5 19 23.5 19C23.5 19 22.8044 19.8856 22.3609 20.9244ZM19.8905 27.4091C19.8903 26.9308 20.0427 26.4108 20.2503 25.9244C20.6938 24.8856 21.3894 24 21.3894 24C21.3894 24 22.0537 24.9175 22.4984 25.9252C22.7221 26.4321 22.8903 26.9619 22.8904 27.4091C22.8907 28.2877 22.2194 29 21.3909 29C20.5625 29 19.8907 28.2877 19.8905 27.4091Z" fill="url(#paint0_linear_9_3214)"/>
</g>
<defs>
<filter id="filter0_d_9_3214" x="-2" y="0" width="40" height="40" filterUnits="userSpaceOnUse" color-interpolation-filters="sRGB">
<feFlood flood-opacity="0" result="BackgroundImageFix"/>
<feColorMatrix in="SourceAlpha" type="matrix" values="0 0 0 0 0 0 0 0 0 0 0 0 0 0 0 0 0 0 127 0" result="hardAlpha"/>
<feOffset dy="4"/>
<feGaussianBlur stdDeviation="2"/>
<feComposite in2="hardAlpha" operator="out"/>
<feColorMatrix type="matrix" values="0 0 0 0 0 0 0 0 0 0 0 0 0 0 0 0 0 0 0.25 0"/>
<feBlend mode="normal" in2="BackgroundImageFix" result="effect1_dropShadow_9_3214"/>
<feBlend mode="normal" in="SourceGraphic" in2="effect1_dropShadow_9_3214" result="shape"/>
</filter>
<linearGradient id="paint0_linear_9_3214" x1="18" y1="2" x2="18" y2="29" gradientUnits="userSpaceOnUse">
<stop stop-color="#95B6F6"/>
<stop offset="1" stop-color="#5193DE"/>
</linearGradient>
</defs>
</svg>
