<svg width="36" height="38" viewBox="0 0 36 38" fill="none" xmlns="http://www.w3.org/2000/svg">
<g filter="url(#filter0_d_9_3930)">
<path fill-rule="evenodd" clip-rule="evenodd" d="M20 15L19.2565 15.5204L19.4142 16.4142L18.5204 16.2565L18 17L17.4796 16.2565L16.5858 16.4142L16.7435 15.5204L16 15L16.7435 14.4796L16.5858 13.5858L17.4796 13.7435L18 13L18.5204 13.7435L19.4142 13.5858L19.2565 14.4796L20 15ZM15.2565 18.5204L16 18L15.2565 17.4796L15.4142 16.5858L14.5204 16.7435L14 16L13.4796 16.7435L12.5858 16.5858L12.7435 17.4796L12 18L12.7435 18.5204L12.5858 19.4142L13.4796 19.2565L14 20L14.5204 19.2565L15.4142 19.4142L15.2565 18.5204ZM19.2565 21.5204L20 21L19.2565 20.4796L19.4142 19.5858L18.5204 19.7435L18 19L17.4796 19.7435L16.5858 19.5858L16.7435 20.4796L16 21L16.7435 21.5204L16.5858 22.4142L17.4796 22.2565L18 23L18.5204 22.2565L19.4142 22.4142L19.2565 21.5204ZM23.2565 18.5204L24 18L23.2565 17.4796L23.4142 16.5858L22.5204 16.7435L22 16L21.4796 16.7435L20.5858 16.5858L20.7435 17.4796L20 18L20.7435 18.5204L20.5858 19.4142L21.4796 19.2565L22 20L22.5204 19.2565L23.4142 19.4142L23.2565 18.5204Z" fill="url(#paint0_linear_9_3930)"/>
<path fill-rule="evenodd" clip-rule="evenodd" d="M11 23.3473C6.91752 21.8163 4 17.7615 4 13C4 6.92487 8.74949 2 14.6083 2C19.469 2 23.5661 5.38976 24.821 10.0139C24.9626 10.0047 25.1054 10 25.2493 10C28.9776 10 32 13.134 32 17C32 20.6028 29.375 23.57 26 23.9572V21.937C28.2205 21.5615 30 19.5486 30 17C30 14.1696 27.8053 12 25.2493 12C24.5272 12 23.8339 12.1732 23.2108 12.4855C23.1791 11.9037 23.0937 11.3367 22.9599 10.7899L22.9569 10.7911C22.0091 6.85004 18.5839 4 14.6083 4C9.92179 4 6 7.96046 6 13C6 16.6616 8.0703 19.7535 11 21.1706V23.3473Z" fill="url(#paint1_linear_9_3930)"/>
<path fill-rule="evenodd" clip-rule="evenodd" d="M14.5021 28.0021C14.7442 28.0021 15.0022 27.7921 15.0021 27.456C15.0021 27.272 14.9389 26.9263 14.7435 26.4168C14.6656 26.2136 14.5746 26.0045 14.4744 25.7938C14.1753 26.4437 14.0015 27.0277 14.0017 27.456C14.0018 27.7921 14.2599 28.0021 14.5021 28.0021ZM13.2923 23.7572C13.9029 22.7302 14.5002 22 14.5002 22C14.5002 22 15.0699 22.7554 15.6655 23.7778C16.318 24.8977 17.0018 26.3379 17.0021 27.456C17.0025 28.8622 15.8835 30.0021 14.5027 30.0021C13.1218 30.0021 12.0021 28.8622 12.0017 27.456C12.0013 26.229 12.654 24.8309 13.2923 23.7572Z" fill="url(#paint2_linear_9_3930)"/>
<path fill-rule="evenodd" clip-rule="evenodd" d="M21.5021 28.0021C21.7442 28.0021 22.0022 27.7921 22.0021 27.456C22.0021 27.272 21.9389 26.9263 21.7435 26.4168C21.6656 26.2136 21.5746 26.0045 21.4744 25.7938C21.1753 26.4437 21.0015 27.0277 21.0017 27.456C21.0018 27.7921 21.2599 28.0021 21.5021 28.0021ZM20.2923 23.7572C20.9029 22.7302 21.5002 22 21.5002 22C21.5002 22 22.0699 22.7554 22.6655 23.7778C23.318 24.8977 24.0018 26.3379 24.0021 27.456C24.0025 28.8622 22.8835 30.0021 21.5027 30.0021C20.1218 30.0021 19.0021 28.8622 19.0017 27.456C19.0013 26.229 19.654 24.8309 20.2923 23.7572Z" fill="url(#paint3_linear_9_3930)"/>
</g>
<defs>
<filter id="filter0_d_9_3930" x="-2" y="0" width="40" height="40" filterUnits="userSpaceOnUse" color-interpolation-filters="sRGB">
<feFlood flood-opacity="0" result="BackgroundImageFix"/>
<feColorMatrix in="SourceAlpha" type="matrix" values="0 0 0 0 0 0 0 0 0 0 0 0 0 0 0 0 0 0 127 0" result="hardAlpha"/>
<feOffset dy="4"/>
<feGaussianBlur stdDeviation="2"/>
<feComposite in2="hardAlpha" operator="out"/>
<feColorMatrix type="matrix" values="0 0 0 0 0 0 0 0 0 0 0 0 0 0 0 0 0 0 0.25 0"/>
<feBlend mode="normal" in2="BackgroundImageFix" result="effect1_dropShadow_9_3930"/>
<feBlend mode="normal" in="SourceGraphic" in2="effect1_dropShadow_9_3930" result="shape"/>
</filter>
<linearGradient id="paint0_linear_9_3930" x1="18" y1="13" x2="18" y2="23" gradientUnits="userSpaceOnUse">
<stop stop-color="#B2D4F7"/>
<stop offset="1" stop-color="#D9E2F3"/>
</linearGradient>
<linearGradient id="paint1_linear_9_3930" x1="18" y1="2" x2="18" y2="23.9572" gradientUnits="userSpaceOnUse">
<stop stop-color="#B2D4F7"/>
<stop offset="1" stop-color="#D9E2F3"/>
</linearGradient>
<linearGradient id="paint2_linear_9_3930" x1="14.5002" y1="22" x2="14.5002" y2="30.0021" gradientUnits="userSpaceOnUse">
<stop stop-color="#95B6F6"/>
<stop offset="1" stop-color="#5193DE"/>
</linearGradient>
<linearGradient id="paint3_linear_9_3930" x1="21.5002" y1="22" x2="21.5002" y2="30.0021" gradientUnits="userSpaceOnUse">
<stop stop-color="#95B6F6"/>
<stop offset="1" stop-color="#5193DE"/>
</linearGradient>
</defs>
</svg>
