<svg width="36" height="38" viewBox="0 0 36 38" fill="none" xmlns="http://www.w3.org/2000/svg">
<g filter="url(#filter0_d_9_3847)">
<path fill-rule="evenodd" clip-rule="evenodd" d="M4 13C4 16.94 5.99765 20.3961 9 22.3388V19.8265C7.1719 18.1872 6 15.7548 6 13C6 7.96046 9.92179 4 14.6083 4C18.5839 4 22.0091 6.85004 22.9569 10.7911L22.9599 10.7899C23.0937 11.3367 23.1791 11.9037 23.2108 12.4855C23.8339 12.1732 24.5272 12 25.2493 12C27.8053 12 30 14.1696 30 17C30 19.1518 28.7314 20.9218 27 21.6467V23.7623C29.8796 22.9627 32 20.2381 32 17C32 13.134 28.9776 10 25.2493 10C25.1054 10 24.9626 10.0047 24.821 10.0139C23.5661 5.38976 19.469 2 14.6083 2C8.74949 2 4 6.92487 4 13ZM19.2565 24.5204L20 24L19.2565 23.4796L19.4142 22.5858L18.5204 22.7435L18 22L17.4796 22.7435L16.5858 22.5858L16.7435 23.4796L16 24L16.7435 24.5204L16.5858 25.4142L17.4796 25.2565L18 26L18.5204 25.2565L19.4142 25.4142L19.2565 24.5204ZM16.8284 20L16.0849 20.5204L16.2426 21.4142L15.3489 21.2565L14.8284 22L14.308 21.2565L13.4142 21.4142L13.572 20.5204L12.8284 20L13.572 19.4796L13.4142 18.5858L14.308 18.7435L14.8284 18L15.3489 18.7435L16.2426 18.5858L16.0849 19.4796L16.8284 20ZM16.0849 28.5204L16.8284 28L16.0849 27.4796L16.2426 26.5858L15.3489 26.7435L14.8284 26L14.308 26.7435L13.4142 26.5858L13.572 27.4796L12.8284 28L13.572 28.5204L13.4142 29.4142L14.308 29.2565L14.8284 30L15.3489 29.2565L16.2426 29.4142L16.0849 28.5204ZM26 24L25.2565 24.5204L25.4142 25.4142L24.5204 25.2565L24 26L23.4796 25.2565L22.5858 25.4142L22.7435 24.5204L22 24L22.7435 23.4796L22.5858 22.5858L23.4796 22.7435L24 22L24.5204 22.7435L25.4142 22.5858L25.2565 23.4796L26 24ZM22.0849 20.5204L22.8284 20L22.0849 19.4796L22.2426 18.5858L21.3489 18.7435L20.8284 18L20.308 18.7435L19.4142 18.5858L19.572 19.4796L18.8284 20L19.572 20.5204L19.4142 21.4142L20.308 21.2565L20.8284 22L21.3489 21.2565L22.2426 21.4142L22.0849 20.5204ZM22.8284 28L22.0849 28.5204L22.2426 29.4142L21.3489 29.2565L20.8284 30L20.308 29.2565L19.4142 29.4142L19.572 28.5204L18.8284 28L19.572 27.4796L19.4142 26.5858L20.308 26.7435L20.8284 26L21.3489 26.7435L22.2426 26.5858L22.0849 27.4796L22.8284 28ZM13.0849 24.5204L13.8284 24L13.0849 23.4796L13.2426 22.5858L12.3489 22.7435L11.8284 22L11.308 22.7435L10.4142 22.5858L10.572 23.4796L9.82843 24L10.572 24.5204L10.4142 25.4142L11.308 25.2565L11.8284 26L12.3489 25.2565L13.2426 25.4142L13.0849 24.5204Z" fill="url(#paint0_linear_9_3847)"/>
</g>
<defs>
<filter id="filter0_d_9_3847" x="-2" y="0" width="40" height="40" filterUnits="userSpaceOnUse" color-interpolation-filters="sRGB">
<feFlood flood-opacity="0" result="BackgroundImageFix"/>
<feColorMatrix in="SourceAlpha" type="matrix" values="0 0 0 0 0 0 0 0 0 0 0 0 0 0 0 0 0 0 127 0" result="hardAlpha"/>
<feOffset dy="4"/>
<feGaussianBlur stdDeviation="2"/>
<feComposite in2="hardAlpha" operator="out"/>
<feColorMatrix type="matrix" values="0 0 0 0 0 0 0 0 0 0 0 0 0 0 0 0 0 0 0.25 0"/>
<feBlend mode="normal" in2="BackgroundImageFix" result="effect1_dropShadow_9_3847"/>
<feBlend mode="normal" in="SourceGraphic" in2="effect1_dropShadow_9_3847" result="shape"/>
</filter>
<linearGradient id="paint0_linear_9_3847" x1="18" y1="2" x2="18" y2="30" gradientUnits="userSpaceOnUse">
<stop stop-color="#B2D4F7"/>
<stop offset="1" stop-color="#D9E2F3"/>
</linearGradient>
</defs>
</svg>
