<svg width="36" height="38" viewBox="0 0 36 38" fill="none" xmlns="http://www.w3.org/2000/svg">
<g filter="url(#filter0_d_9_1514)">
<path fill-rule="evenodd" clip-rule="evenodd" d="M19.6361 2V4.43513H21.6361V2H19.6361ZM32.0001 12.3639H29.5649L29.5649 14.3639H32.0001V12.3639ZM27.8687 8.03351L29.9776 6.81594L30.9776 8.54799L28.8687 9.76556L27.8687 8.03351ZM25.4521 3.02245L24.2346 5.13133L25.9666 6.13133L27.1842 4.02245L25.4521 3.02245ZM15.3057 6.13133L14.0881 4.02245L15.8202 3.02245L17.0377 5.13133L15.3057 6.13133ZM26.1536 13.3638C26.1536 14.5604 25.7766 15.6689 25.1351 16.5772C25.8565 16.632 26.5431 16.8111 27.1736 17.0931C27.7974 15.9922 28.1536 14.7196 28.1536 13.3638C28.1536 9.17971 24.7617 5.78784 20.5776 5.78784C17.5731 5.78784 14.9772 7.53678 13.7522 10.0721L13.761 10.0721C14.499 10.0721 15.217 10.1574 15.9057 10.3188C16.901 8.79489 18.6217 7.78784 20.5776 7.78784C23.6571 7.78784 26.1536 10.2843 26.1536 13.3638Z" fill="url(#paint0_linear_9_1514)"/>
<path fill-rule="evenodd" clip-rule="evenodd" d="M14.5 28L14.5411 27.9999V28L14.6971 28L24.9973 28H25C25.0014 28 25.0028 28 25.0043 28C27.6983 27.9976 30 25.7147 30 22.75C30 19.7838 27.6958 17.5 25 17.5C24.2698 17.5 23.5684 17.6675 22.9337 17.9708C22.8474 17.2839 22.685 16.6218 22.4555 15.9939L22.4577 15.993C21.2369 12.6095 18.0973 10.25 14.5 10.25C9.87115 10.25 6 14.1567 6 19.125C6 24.0933 9.87115 28 14.5 28ZM25.2414 29.9958C28.9956 29.864 32 26.6704 32 22.75C32 18.7459 28.866 15.5 25 15.5C24.8017 15.5 24.6053 15.5085 24.4111 15.5253C22.9766 11.2883 19.0809 8.25 14.5 8.25C8.70101 8.25 4 13.1189 4 19.125C4 25.1311 8.70101 30 14.5 30C14.5658 30 14.6315 29.9994 14.6971 29.9981V30H24.9949C24.9966 30 24.9983 30 25 30C25.0017 30 25.0034 30 25.0051 30H25.2414V29.9958Z" fill="url(#paint1_linear_9_1514)"/>
<path fill-rule="evenodd" clip-rule="evenodd" d="M19.6361 2V4.43513H21.6361V2H19.6361ZM32.0001 12.3639H29.5649L29.5649 14.3639H32.0001V12.3639ZM27.8687 8.03351L29.9776 6.81594L30.9776 8.54799L28.8687 9.76556L27.8687 8.03351ZM25.4521 3.02245L24.2346 5.13133L25.9666 6.13133L27.1842 4.02245L25.4521 3.02245ZM15.3057 6.13133L14.0881 4.02245L15.8202 3.02245L17.0377 5.13133L15.3057 6.13133ZM26.1536 13.3638C26.1536 14.5604 25.7766 15.6689 25.1351 16.5772C25.8565 16.632 26.5431 16.8111 27.1736 17.0931C27.7974 15.9922 28.1536 14.7196 28.1536 13.3638C28.1536 9.17971 24.7617 5.78784 20.5776 5.78784C17.5731 5.78784 14.9772 7.53678 13.7522 10.0721L13.761 10.0721C14.499 10.0721 15.217 10.1574 15.9057 10.3188C16.901 8.79489 18.6217 7.78784 20.5776 7.78784C23.6571 7.78784 26.1536 10.2843 26.1536 13.3638Z" fill="url(#paint2_linear_9_1514)"/>
<path fill-rule="evenodd" clip-rule="evenodd" d="M14.5 28L14.5411 27.9999V28L14.6971 28L24.9973 28H25C25.0014 28 25.0028 28 25.0043 28C27.6983 27.9976 30 25.7147 30 22.75C30 19.7838 27.6958 17.5 25 17.5C24.2698 17.5 23.5684 17.6675 22.9337 17.9708C22.8474 17.2839 22.685 16.6218 22.4555 15.9939L22.4577 15.993C21.2369 12.6095 18.0973 10.25 14.5 10.25C9.87115 10.25 6 14.1567 6 19.125C6 24.0933 9.87115 28 14.5 28ZM25.2414 29.9958C28.9956 29.864 32 26.6704 32 22.75C32 18.7459 28.866 15.5 25 15.5C24.8017 15.5 24.6053 15.5085 24.4111 15.5253C22.9766 11.2883 19.0809 8.25 14.5 8.25C8.70101 8.25 4 13.1189 4 19.125C4 25.1311 8.70101 30 14.5 30C14.5658 30 14.6315 29.9994 14.6971 29.9981V30H24.9949C24.9966 30 24.9983 30 25 30C25.0017 30 25.0034 30 25.0051 30H25.2414V29.9958Z" fill="url(#paint3_linear_9_1514)"/>
</g>
<defs>
<filter id="filter0_d_9_1514" x="-2" y="0" width="40" height="40" filterUnits="userSpaceOnUse" color-interpolation-filters="sRGB">
<feFlood flood-opacity="0" result="BackgroundImageFix"/>
<feColorMatrix in="SourceAlpha" type="matrix" values="0 0 0 0 0 0 0 0 0 0 0 0 0 0 0 0 0 0 127 0" result="hardAlpha"/>
<feOffset dy="4"/>
<feGaussianBlur stdDeviation="2"/>
<feComposite in2="hardAlpha" operator="out"/>
<feColorMatrix type="matrix" values="0 0 0 0 0 0 0 0 0 0 0 0 0 0 0 0 0 0 0.25 0"/>
<feBlend mode="normal" in2="BackgroundImageFix" result="effect1_dropShadow_9_1514"/>
<feBlend mode="normal" in="SourceGraphic" in2="effect1_dropShadow_9_1514" result="shape"/>
</filter>
<linearGradient id="paint0_linear_9_1514" x1="22.8761" y1="2" x2="22.8761" y2="17.0931" gradientUnits="userSpaceOnUse">
<stop stop-color="#EFC977"/>
<stop offset="1" stop-color="#E07256"/>
</linearGradient>
<linearGradient id="paint1_linear_9_1514" x1="18" y1="8.25" x2="18" y2="30" gradientUnits="userSpaceOnUse">
<stop stop-color="#B2D4F7"/>
<stop offset="1" stop-color="#D9E2F3"/>
</linearGradient>
<linearGradient id="paint2_linear_9_1514" x1="22.8761" y1="2" x2="22.8761" y2="17.0931" gradientUnits="userSpaceOnUse">
<stop stop-color="#EFC977"/>
<stop offset="1" stop-color="#E07256"/>
</linearGradient>
<linearGradient id="paint3_linear_9_1514" x1="18" y1="8.25" x2="18" y2="30" gradientUnits="userSpaceOnUse">
<stop stop-color="#B2D4F7"/>
<stop offset="1" stop-color="#D9E2F3"/>
</linearGradient>
</defs>
</svg>
