<svg width="36" height="38" viewBox="0 0 36 38" fill="none" xmlns="http://www.w3.org/2000/svg">
<g filter="url(#filter0_d_9_2904)">
<path fill-rule="evenodd" clip-rule="evenodd" d="M26 23.9572C29.375 23.57 32 20.6028 32 17C32 13.134 28.9776 10 25.2493 10C25.1054 10 24.9626 10.0047 24.821 10.0139C23.5661 5.38976 19.469 2 14.6083 2C8.74949 2 4 6.92487 4 13C4 18.1419 7.40237 22.4598 12 23.665V21.5772C8.55261 20.4291 6 17.0657 6 13C6 7.96046 9.92179 4 14.6083 4C18.5839 4 22.0091 6.85004 22.9569 10.7911L22.9599 10.7899C23.0937 11.3367 23.1791 11.9037 23.2108 12.4855C23.8339 12.1732 24.5272 12 25.2493 12C27.8053 12 30 14.1696 30 17C30 19.5486 28.2205 21.5615 26 21.937V23.9572ZM15.5021 28.0021C15.7442 28.0021 16.0022 27.7921 16.0021 27.456C16.0021 27.272 15.9389 26.9263 15.7435 26.4168C15.6656 26.2136 15.5746 26.0045 15.4744 25.7938C15.1753 26.4437 15.0015 27.0277 15.0017 27.456C15.0018 27.7921 15.2599 28.0021 15.5021 28.0021ZM14.2923 23.7572C14.9029 22.7302 15.5002 22 15.5002 22C15.5002 22 16.0699 22.7554 16.6655 23.7778C17.318 24.8977 18.0018 26.3379 18.0021 27.456C18.0025 28.8622 16.8835 30.0021 15.5027 30.0021C14.1218 30.0021 13.0021 28.8622 13.0017 27.456C13.0013 26.229 13.654 24.8309 14.2923 23.7572ZM22.0021 24.456C22.0022 24.7921 21.7442 25.0021 21.5021 25.0021C21.2599 25.0021 21.0018 24.7921 21.0017 24.456C21.0015 24.0277 21.1753 23.4437 21.4744 22.7938C21.5746 23.0045 21.6656 23.2136 21.7435 23.4168C21.9389 23.9263 22.0021 24.272 22.0021 24.456ZM21.5002 19C21.5002 19 20.9029 19.7302 20.2923 20.7572C19.654 21.8309 19.0013 23.229 19.0017 24.456C19.0021 25.8622 20.1218 27.0021 21.5027 27.0021C22.8835 27.0021 24.0025 25.8622 24.0021 24.456C24.0018 23.3379 23.318 21.8977 22.6655 20.7778C22.0699 19.7554 21.5002 19 21.5002 19Z" fill="url(#paint0_linear_9_2904)"/>
</g>
<defs>
<filter id="filter0_d_9_2904" x="-2" y="0" width="40" height="40" filterUnits="userSpaceOnUse" color-interpolation-filters="sRGB">
<feFlood flood-opacity="0" result="BackgroundImageFix"/>
<feColorMatrix in="SourceAlpha" type="matrix" values="0 0 0 0 0 0 0 0 0 0 0 0 0 0 0 0 0 0 127 0" result="hardAlpha"/>
<feOffset dy="4"/>
<feGaussianBlur stdDeviation="2"/>
<feComposite in2="hardAlpha" operator="out"/>
<feColorMatrix type="matrix" values="0 0 0 0 0 0 0 0 0 0 0 0 0 0 0 0 0 0 0.25 0"/>
<feBlend mode="normal" in2="BackgroundImageFix" result="effect1_dropShadow_9_2904"/>
<feBlend mode="normal" in="SourceGraphic" in2="effect1_dropShadow_9_2904" result="shape"/>
</filter>
<linearGradient id="paint0_linear_9_2904" x1="18" y1="2" x2="18" y2="30.0021" gradientUnits="userSpaceOnUse">
<stop stop-color="#95B6F6"/>
<stop offset="1" stop-color="#5193DE"/>
</linearGradient>
</defs>
</svg>
