<svg width="36" height="38" viewBox="0 0 36 38" fill="none" xmlns="http://www.w3.org/2000/svg">
<g filter="url(#filter0_d_9_3765)">
<path fill-rule="evenodd" clip-rule="evenodd" d="M11 23.3473C6.91752 21.8163 4 17.7615 4 13C4 6.92487 8.74949 2 14.6083 2C19.469 2 23.5661 5.38976 24.821 10.0139C24.9626 10.0047 25.1054 10 25.2493 10C28.9776 10 32 13.134 32 17C32 20.866 28.9776 24 25.2493 24C25.1658 24 25.0827 23.9984 25 23.9953V22H25.3029V21.9996C27.8359 21.9695 30 19.8105 30 17C30 14.1696 27.8053 12 25.2493 12C24.5272 12 23.8339 12.1732 23.2108 12.4855C23.1791 11.9037 23.0937 11.3367 22.9599 10.7899L22.9569 10.7911C22.0091 6.85004 18.5839 4 14.6083 4C9.92179 4 6 7.96046 6 13C6 16.6616 8.0703 19.7535 11 21.1706V23.3473Z" fill="url(#paint0_linear_9_3765)"/>
<path fill-rule="evenodd" clip-rule="evenodd" d="M19.168 16.4453L20.8321 17.5547L17.8685 22H22.9557L17.4773 29.5855L15.856 28.4145L19.0442 24H14.1315L19.168 16.4453Z" fill="url(#paint1_linear_9_3765)"/>
<path fill-rule="evenodd" clip-rule="evenodd" d="M22.3609 26.9244C22.1533 27.4108 22.0009 27.9308 22.001 28.4091C22.0013 29.2877 22.6731 30 23.5015 30C24.33 30 25.0013 29.2877 25.001 28.4091C25.0009 27.9619 24.8327 27.4321 24.609 26.9252C24.1643 25.9175 23.5 25 23.5 25C23.5 25 22.8044 25.8856 22.3609 26.9244Z" fill="url(#paint2_linear_9_3765)"/>
<path fill-rule="evenodd" clip-rule="evenodd" d="M11.3609 26.9244C11.1533 27.4108 11.0009 27.9308 11.001 28.4091C11.0013 29.2877 11.6731 30 12.5015 30C13.33 30 14.0013 29.2877 14.001 28.4091C14.0009 27.9619 13.8327 27.4321 13.609 26.9252C13.1643 25.9175 12.5 25 12.5 25C12.5 25 11.8044 25.8856 11.3609 26.9244Z" fill="url(#paint3_linear_9_3765)"/>
</g>
<defs>
<filter id="filter0_d_9_3765" x="-2" y="0" width="40" height="40" filterUnits="userSpaceOnUse" color-interpolation-filters="sRGB">
<feFlood flood-opacity="0" result="BackgroundImageFix"/>
<feColorMatrix in="SourceAlpha" type="matrix" values="0 0 0 0 0 0 0 0 0 0 0 0 0 0 0 0 0 0 127 0" result="hardAlpha"/>
<feOffset dy="4"/>
<feGaussianBlur stdDeviation="2"/>
<feComposite in2="hardAlpha" operator="out"/>
<feColorMatrix type="matrix" values="0 0 0 0 0 0 0 0 0 0 0 0 0 0 0 0 0 0 0.25 0"/>
<feBlend mode="normal" in2="BackgroundImageFix" result="effect1_dropShadow_9_3765"/>
<feBlend mode="normal" in="SourceGraphic" in2="effect1_dropShadow_9_3765" result="shape"/>
</filter>
<linearGradient id="paint0_linear_9_3765" x1="18" y1="2" x2="18" y2="24" gradientUnits="userSpaceOnUse">
<stop stop-color="#95B6F6"/>
<stop offset="1" stop-color="#5193DE"/>
</linearGradient>
<linearGradient id="paint1_linear_9_3765" x1="18.5436" y1="16.4453" x2="18.5436" y2="29.5855" gradientUnits="userSpaceOnUse">
<stop stop-color="#F5BD52"/>
<stop offset="1" stop-color="#F5DA79"/>
</linearGradient>
<linearGradient id="paint2_linear_9_3765" x1="23.5" y1="25" x2="23.5" y2="30" gradientUnits="userSpaceOnUse">
<stop stop-color="#95B6F6"/>
<stop offset="1" stop-color="#5193DE"/>
</linearGradient>
<linearGradient id="paint3_linear_9_3765" x1="12.5" y1="25" x2="12.5" y2="30" gradientUnits="userSpaceOnUse">
<stop stop-color="#95B6F6"/>
<stop offset="1" stop-color="#5193DE"/>
</linearGradient>
</defs>
</svg>
